<svg width="201" height="200" fill="none" xmlns="http://www.w3.org/2000/svg"><path fill="#2C6269" d="M100.031 100h-100V0h100z"/><path fill-rule="evenodd" clip-rule="evenodd" d="M100.031 200c55.229 0 100-44.772 100-100S155.26 0 100.031 0c-55.228 0-100 44.772-100 100s44.772 100 100 100Zm0-67c18.226 0 33-14.775 33-33s-14.774-33-33-33c-18.225 0-33 14.775-33 33s14.775 33 33 33Z" fill="#F67E7E"/><path fill-rule="evenodd" clip-rule="evenodd" d="M100.031 0h-100v4h100V0Zm0 8h-100v4h100V8Zm-100 8h100v4h-100v-4Zm100 8h-100v4h100v-4Zm-100 8h100v4h-100v-4Zm100 8h-100v4h100v-4Z" fill="#79C8C7"/></svg>