<svg width="201" height="201" viewBox="0 0 201 201" fill="none" xmlns="http://www.w3.org/2000/svg">
<rect width="100" height="100" transform="matrix(1 0 0 -1 100.491 100.341)" fill="#2C6269"/>
<path fill-rule="evenodd" clip-rule="evenodd" d="M100.491 200.341C45.2623 200.341 0.490723 155.569 0.490723 100.341C0.490723 45.1123 45.2623 0.34082 100.491 0.34082C155.719 0.34082 200.491 45.1123 200.491 100.341C200.491 155.569 155.719 200.341 100.491 200.341ZM100.491 133.341C82.2653 133.341 67.4907 118.566 67.4907 100.341C67.4907 82.1154 82.2653 67.3408 100.491 67.3408C118.716 67.3408 133.491 82.1154 133.491 100.341C133.491 118.566 118.716 133.341 100.491 133.341Z" fill="#012F34"/>
<path fill-rule="evenodd" clip-rule="evenodd" d="M100.491 56.3408H200.491V60.3408H100.491V56.3408ZM100.491 64.3408H200.491V68.3408H100.491V64.3408ZM200.491 72.3408H100.491V76.3408H200.491V72.3408ZM100.491 80.3408H200.491V84.3408H100.491V80.3408ZM200.491 88.3408H100.491V92.3408H200.491V88.3408ZM100.491 96.3408H200.491V100.341H100.491V96.3408Z" fill="#79C8C7"/>
<path fill-rule="evenodd" clip-rule="evenodd" d="M200.491 100.341H196.491V104.341H200.491V100.341ZM189.491 100.341H193.491V104.341H189.491V100.341ZM189.491 108.341H193.491V112.341H189.491V108.341ZM193.491 116.341H189.491V120.341H193.491V116.341ZM189.491 124.341H193.491V128.341H189.491V124.341ZM193.491 132.341H189.491V136.341H193.491V132.341ZM189.491 140.341H193.491V144.341H189.491V140.341ZM186.491 100.341H182.491V104.341H186.491V100.341ZM186.491 108.341H182.491V112.341H186.491V108.341ZM182.491 116.341H186.491V120.341H182.491V116.341ZM186.491 124.341H182.491V128.341H186.491V124.341ZM182.491 132.341H186.491V136.341H182.491V132.341ZM186.491 140.341H182.491V144.341H186.491V140.341ZM200.491 108.341H196.491V112.341H200.491V108.341ZM179.491 100.341H175.491V104.341H179.491V100.341ZM179.491 108.341H175.491V112.341H179.491V108.341ZM175.491 116.341H179.491V120.341H175.491V116.341ZM179.491 124.341H175.491V128.341H179.491V124.341ZM175.491 132.341H179.491V136.341H175.491V132.341ZM179.491 140.341H175.491V144.341H179.491V140.341ZM200.491 116.341H196.491V120.341H200.491V116.341ZM172.491 100.341H168.491V104.341H172.491V100.341ZM172.491 108.341H168.491V112.341H172.491V108.341ZM168.491 116.341H172.491V120.341H168.491V116.341ZM172.491 124.341H168.491V128.341H172.491V124.341ZM168.491 132.341H172.491V136.341H168.491V132.341ZM172.491 140.341H168.491V144.341H172.491V140.341ZM200.491 124.341H196.491V128.341H200.491V124.341ZM165.491 100.341H161.491V104.341H165.491V100.341ZM165.491 108.341H161.491V112.341H165.491V108.341ZM161.491 116.341H165.491V120.341H161.491V116.341ZM165.491 124.341H161.491V128.341H165.491V124.341ZM161.491 132.341H165.491V136.341H161.491V132.341ZM165.491 140.341H161.491V144.341H165.491V140.341ZM200.491 132.341H196.491V136.341H200.491V132.341ZM158.491 100.341H154.491V104.341H158.491V100.341ZM158.491 108.341H154.491V112.341H158.491V108.341ZM154.491 116.341H158.491V120.341H154.491V116.341ZM158.491 124.341H154.491V128.341H158.491V124.341ZM154.491 132.341H158.491V136.341H154.491V132.341ZM158.491 140.341H154.491V144.341H158.491V140.341ZM200.491 140.341H196.491V144.341H200.491V140.341ZM151.491 100.341H147.491V104.341H151.491V100.341ZM151.491 108.341H147.491V112.341H151.491V108.341ZM147.491 116.341H151.491V120.341H147.491V116.341ZM151.491 124.341H147.491V128.341H151.491V124.341ZM147.491 132.341H151.491V136.341H147.491V132.341ZM151.491 140.341H147.491V144.341H151.491V140.341Z" fill="#F67E7E"/>
</svg>
