<svg width="200" height="226" viewBox="0 0 200 226" fill="none" xmlns="http://www.w3.org/2000/svg">
<path fill-rule="evenodd" clip-rule="evenodd" d="M200 100.484C200 45.2552 155.228 0.483704 100 0.483704C44.7715 0.483704 0 45.2552 0 100.484C0 155.712 44.7715 200.484 100 200.484C155.228 200.484 200 155.712 200 100.484ZM133 100.484C133 82.2583 118.225 67.4837 100 67.4837C81.7746 67.4837 67 82.2583 67 100.484C67 118.709 81.7746 133.484 100 133.484C118.225 133.484 133 118.709 133 100.484Z" fill="#012F34"/>
<rect x="43" y="0.483643" width="43" height="43" transform="rotate(90 43 0.483643)" fill="#79C8C7"/>
<path fill-rule="evenodd" clip-rule="evenodd" d="M200 124.97C200 69.7417 155.228 24.9702 100 24.9702C44.7715 24.9702 0 69.7417 0 124.97C0 180.199 44.7715 224.97 100 224.97C155.228 224.97 200 180.199 200 124.97ZM133 124.97C133 106.745 118.225 91.9702 100 91.9702C81.7746 91.9702 67 106.745 67 124.97C67 143.196 81.7746 157.97 100 157.97C118.225 157.97 133 143.196 133 124.97Z" fill="#F67E7E"/>
</svg>
