<svg width="201" height="201" viewBox="0 0 201 201" fill="none" xmlns="http://www.w3.org/2000/svg">
<rect width="100" height="100" transform="matrix(1 0 0 -1 100.94 100.081)" fill="#2C6269"/>
<path fill-rule="evenodd" clip-rule="evenodd" d="M100.94 200.081C45.712 200.081 0.94043 155.309 0.94043 100.081C0.94043 44.8521 45.712 0.0805664 100.94 0.0805664C156.169 0.0805664 200.94 44.8521 200.94 100.081C200.94 155.309 156.169 200.081 100.94 200.081ZM100.94 133.081C82.715 133.081 67.9404 118.306 67.9404 100.081C67.9404 81.8552 82.715 67.0806 100.94 67.0806C119.166 67.0806 133.94 81.8552 133.94 100.081C133.94 118.306 119.166 133.081 100.94 133.081Z" fill="#012F34"/>
<path fill-rule="evenodd" clip-rule="evenodd" d="M100.94 56.0806H200.94V60.0806H100.94V56.0806ZM100.94 64.0806H200.94V68.0806H100.94V64.0806ZM200.94 72.0806H100.94V76.0806H200.94V72.0806ZM100.94 80.0806H200.94V84.0806H100.94V80.0806ZM200.94 88.0806H100.94V92.0806H200.94V88.0806ZM100.94 96.0806H200.94V100.081H100.94V96.0806Z" fill="#79C8C7"/>
<path fill-rule="evenodd" clip-rule="evenodd" d="M200.94 100.081H196.94V104.081H200.94V100.081ZM189.94 100.081H193.94V104.081H189.94V100.081ZM189.94 108.081H193.94V112.081H189.94V108.081ZM193.94 116.081H189.94V120.081H193.94V116.081ZM189.94 124.081H193.94V128.081H189.94V124.081ZM193.94 132.081H189.94V136.081H193.94V132.081ZM189.94 140.081H193.94V144.081H189.94V140.081ZM186.94 100.081H182.94V104.081H186.94V100.081ZM186.94 108.081H182.94V112.081H186.94V108.081ZM182.94 116.081H186.94V120.081H182.94V116.081ZM186.94 124.081H182.94V128.081H186.94V124.081ZM182.94 132.081H186.94V136.081H182.94V132.081ZM186.94 140.081H182.94V144.081H186.94V140.081ZM200.94 108.081H196.94V112.081H200.94V108.081ZM179.94 100.081H175.94V104.081H179.94V100.081ZM179.94 108.081H175.94V112.081H179.94V108.081ZM175.94 116.081H179.94V120.081H175.94V116.081ZM179.94 124.081H175.94V128.081H179.94V124.081ZM175.94 132.081H179.94V136.081H175.94V132.081ZM179.94 140.081H175.94V144.081H179.94V140.081ZM200.94 116.081H196.94V120.081H200.94V116.081ZM172.94 100.081H168.94V104.081H172.94V100.081ZM172.94 108.081H168.94V112.081H172.94V108.081ZM168.94 116.081H172.94V120.081H168.94V116.081ZM172.94 124.081H168.94V128.081H172.94V124.081ZM168.94 132.081H172.94V136.081H168.94V132.081ZM172.94 140.081H168.94V144.081H172.94V140.081ZM200.94 124.081H196.94V128.081H200.94V124.081ZM165.94 100.081H161.94V104.081H165.94V100.081ZM165.94 108.081H161.94V112.081H165.94V108.081ZM161.94 116.081H165.94V120.081H161.94V116.081ZM165.94 124.081H161.94V128.081H165.94V124.081ZM161.94 132.081H165.94V136.081H161.94V132.081ZM165.94 140.081H161.94V144.081H165.94V140.081ZM200.94 132.081H196.94V136.081H200.94V132.081ZM158.94 100.081H154.94V104.081H158.94V100.081ZM158.94 108.081H154.94V112.081H158.94V108.081ZM154.94 116.081H158.94V120.081H154.94V116.081ZM158.94 124.081H154.94V128.081H158.94V124.081ZM154.94 132.081H158.94V136.081H154.94V132.081ZM158.94 140.081H154.94V144.081H158.94V140.081ZM200.94 140.081H196.94V144.081H200.94V140.081ZM151.94 100.081H147.94V104.081H151.94V100.081ZM151.94 108.081H147.94V112.081H151.94V108.081ZM147.94 116.081H151.94V120.081H147.94V116.081ZM151.94 124.081H147.94V128.081H151.94V124.081ZM147.94 132.081H151.94V136.081H147.94V132.081ZM151.94 140.081H147.94V144.081H151.94V140.081Z" fill="#F67E7E"/>
</svg>
