<svg width="201" height="245" viewBox="0 0 201 245" fill="none" xmlns="http://www.w3.org/2000/svg">
<g id="Group 8">
<rect id="Rectangle" x="100.195" y="144.909" width="100" height="100" transform="rotate(-180 100.195 144.909)" fill="#2C6269"/>
<path id="Combined Shape Copy" fill-rule="evenodd" clip-rule="evenodd" d="M100.195 244.909C155.423 244.909 200.195 200.138 200.195 144.909C200.195 89.681 155.423 44.9095 100.195 44.9095C44.9662 44.9095 0.194641 89.681 0.194641 144.909C0.194641 200.138 44.9662 244.909 100.195 244.909ZM100.195 177.909C118.42 177.909 133.195 163.135 133.195 144.909C133.195 126.684 118.42 111.909 100.195 111.909C81.9692 111.909 67.1946 126.684 67.1946 144.909C67.1946 163.135 81.9692 177.909 100.195 177.909Z" fill="#004047"/>
<path id="Combined Shape" fill-rule="evenodd" clip-rule="evenodd" d="M100.195 100.909H0.194641V104.909H100.195V100.909ZM100.195 108.909H0.194641V112.909H100.195V108.909ZM0.194641 116.909H100.195V120.909H0.194641V116.909ZM100.195 124.909H0.194641V128.909H100.195V124.909ZM0.194641 132.909H100.195V136.909H0.194641V132.909ZM100.195 140.909H0.194641V144.909H100.195V140.909Z" fill="#F67E7E"/>
<path id="Combined Shape_2" fill-rule="evenodd" clip-rule="evenodd" d="M0.194641 0.909485H4.19464V4.90948H0.194641V0.909485ZM11.1946 0.909485H7.19464V4.90948H11.1946V0.909485ZM11.1946 8.90948H7.19464V12.9095H11.1946V8.90948ZM7.19464 16.9095H11.1946V20.9095H7.19464V16.9095ZM11.1946 24.9095H7.19464V28.9095H11.1946V24.9095ZM7.19464 32.9095H11.1946V36.9095H7.19464V32.9095ZM11.1946 40.9095H7.19464V44.9095H11.1946V40.9095ZM14.1946 0.909485H18.1946V4.90948H14.1946V0.909485ZM14.1946 8.90948H18.1946V12.9095H14.1946V8.90948ZM18.1946 16.9095H14.1946V20.9095H18.1946V16.9095ZM14.1946 24.9095H18.1946V28.9095H14.1946V24.9095ZM18.1946 32.9095H14.1946V36.9095H18.1946V32.9095ZM14.1946 40.9095H18.1946V44.9095H14.1946V40.9095ZM0.194641 8.90948H4.19464V12.9095H0.194641V8.90948ZM21.1946 0.909485H25.1946V4.90948H21.1946V0.909485ZM21.1946 8.90948H25.1946V12.9095H21.1946V8.90948ZM25.1946 16.9095H21.1946V20.9095H25.1946V16.9095ZM21.1946 24.9095H25.1946V28.9095H21.1946V24.9095ZM25.1946 32.9095H21.1946V36.9095H25.1946V32.9095ZM21.1946 40.9095H25.1946V44.9095H21.1946V40.9095ZM0.194641 16.9095H4.19464V20.9095H0.194641V16.9095ZM28.1946 0.909485H32.1946V4.90948H28.1946V0.909485ZM28.1946 8.90948H32.1946V12.9095H28.1946V8.90948ZM32.1946 16.9095H28.1946V20.9095H32.1946V16.9095ZM28.1946 24.9095H32.1946V28.9095H28.1946V24.9095ZM32.1946 32.9095H28.1946V36.9095H32.1946V32.9095ZM28.1946 40.9095H32.1946V44.9095H28.1946V40.9095ZM0.194641 24.9095H4.19464V28.9095H0.194641V24.9095ZM35.1946 0.909485H39.1946V4.90948H35.1946V0.909485ZM35.1946 8.90948H39.1946V12.9095H35.1946V8.90948ZM39.1946 16.9095H35.1946V20.9095H39.1946V16.9095ZM35.1946 24.9095H39.1946V28.9095H35.1946V24.9095ZM39.1946 32.9095H35.1946V36.9095H39.1946V32.9095ZM35.1946 40.9095H39.1946V44.9095H35.1946V40.9095ZM0.194641 32.9095H4.19464V36.9095H0.194641V32.9095ZM42.1946 0.909485H46.1946V4.90948H42.1946V0.909485ZM42.1946 8.90948H46.1946V12.9095H42.1946V8.90948ZM46.1946 16.9095H42.1946V20.9095H46.1946V16.9095ZM42.1946 24.9095H46.1946V28.9095H42.1946V24.9095ZM46.1946 32.9095H42.1946V36.9095H46.1946V32.9095ZM42.1946 40.9095H46.1946V44.9095H42.1946V40.9095ZM0.194641 40.9095H4.19464V44.9095H0.194641V40.9095ZM49.1946 0.909485H53.1946V4.90948H49.1946V0.909485ZM49.1946 8.90948H53.1946V12.9095H49.1946V8.90948ZM53.1946 16.9095H49.1946V20.9095H53.1946V16.9095ZM49.1946 24.9095H53.1946V28.9095H49.1946V24.9095ZM53.1946 32.9095H49.1946V36.9095H53.1946V32.9095ZM49.1946 40.9095H53.1946V44.9095H49.1946V40.9095Z" fill="#79C8C7"/>
</g>
</svg>
